<svg fill="none" height="31" viewBox="0 0 140 31" width="140" xmlns="http://www.w3.org/2000/svg"><path d="m26.6886 2.73362h10.5527v21.14318l-6.6656 6.6167-30.57765312.007v-20.87097l6.77117312-6.89591h10.61248" fill="#565aef"/><path d="m5.26498 30.4989 3.61786-16.1666-5.00096-1.4361-.79008-6.78772 5.84031-4.70952 15.48329-.511265 1.1948 1.577405 1.9215-.35945 1.7544 1.74142-.176.86897 2.0729 2.53536 1.809 14.7411.3396 5.7652-2.7574 2.736z" fill="#d488ff"/><path d="m3.10716 5.87607c1.23177-.91608 5.81568-.30536 6.39989.10644 1.58015 3.263 4.13165 10.94589 4.13165 10.94589l-10.28518-3.9017s-.43816-5.31672-.24636-7.15063z" fill="#ffdcff"/><path d="m12.666 3.74829h3.5229c.9379 0 1.9901.79569 1.8599 2.06773-.1196 1.16386-2.0201 1.80948-2.0201 1.80948z" fill="#002a3e"/><path d="m14.1644 6.15043c.4694 0 .8499-.37733.8499-.84279s-.3805-.8428-.8499-.8428-.8499.37734-.8499.8428.3805.84279.8499.84279z" fill="#fff"/><path d="m3.24302 6.37695h3.64601c.23052 0 .44168.12913.5455.33328.13021.2565.05807.56884-.16893.74508l-2.11335 1.63673-1.95498-1.16386z" fill="#002a3e"/><path d="m5.15234 8.62646v2.02934" stroke="#002a3e" stroke-miterlimit="10" stroke-width=".53608"/><path d="m8.59524 11.9632c.02288-.3351-.19532-.6404-.52262-.7294-.35545-.0977-2.95799-.8603-2.95799-.8603l-1.64176.7748-.01584.5915s1.25992-.6037 1.72095-.8009c.31146.1169 3.41726 1.0243 3.41726 1.0243z" fill="#002a3e"/><path d="m5.85547 27.8646 11.58383-10.138-9.08335-2.8721z" fill="#5a21ff" opacity=".44"/><path d="m7.43275 5.45587 3.79035-3.00474c.1038-.08202.2322-.12738.3642-.12564l14.3307.04013-1.6189-1.453511-15.11549.122141-4.84963 4.75141z" fill="#ffdcff"/><path d="m3.31997 11.605s10.83773 3.5422 14.04033 4.6955c1.9304.6963 1.4922 2.3923 1.4922 2.3923l-14.92017-5.4808-.86399-1.2249z" fill="#5a21ff" opacity=".44"/><path d="m18.873 30.4961 11.7036-.0017 2.8946-2.8739-2.4037-20.71216-1.9251-2.25094c.6599-1.21098-.776-1.54949-.776-1.54949s.2358.52696-.1531.91434c-.5437.53918-3.5562 3.08501-3.8607 3.38862-.1073.10644-.044.28791.1074.30536l3.3152.3961 1.1191 11.44317z" fill="#5a21ff" opacity=".44"/><path d="m8.62086 15.7837.13197 1.8496c0 .4572-.48567 3.2106-.4927 3.2665l-1.22473 9.5988h-1.72095z" fill="#ffdcff"/><path d="m31.1052 7.06139 2.2665 20.65461-1.2459 1.2388-2.4442-23.6296z" fill="#ffdcff"/><path d="m32.9971 28.0872-2.2664-20.21132c-.0282-.2565-.1408-.49904-.3185-.684l-.0423-.05061-1.6277-2.28409.7145-.49905 1.6083 2.25967c.3027.32804.4945.75031.5437 1.19352l2.2225 19.45228z" fill="#002a3e"/><path d="m5.70105 30.4996h-.87279l3.25538-15.6833.8112.1867z" fill="#002a3e"/><path d="m24.6797 4.11782c.2745.2216.8569.25825 1.149.06107.5261-.35247 1.4728-1.12198 1.8301-1.22493.4751-.13785 1.3056.15355 1.3056.15355l-1.6963-1.19003-1.2071.73287-1.7192 1.19526z" fill="#ffdcff"/><path d="m27.5832 6.59957c-.3677-.53394-.3237-1.03124.1918-1.42908.2306-.17798.4558-.44321.5966-.55314.366-.28617.4047-.83931.1795-1.20923-.1567-.2565-.4488-.62293-.8728-.91085-.2481-.16751-.6476-.24603-1.3286.26698-.4821.36294-.82.62642-1.1561.89688-.4258.34375-.8657.52697-1.2335.12215l-.132-.14483c.0405-.03664 1.0189-.83582 2.0254-1.59485.7109-.53395 1.2001-1.059168 2.3227-.28792.3555.24429.8904.77824 1.1192 1.05219.7144.86373.454 1.77981-.4241 2.57201-.5068.45891-1.2441 1.19003-1.2881 1.21969z" fill="#002a3e"/><path d="m5.84998 6.77783h-1.36549c-.46631 0-.47863.16228-.47863.16228h2.29108c-.00176 0-.04399-.16228-.44696-.16228z" fill="#fff"/><g fill="#002a3e"><path d="m18.9582 19.0372-14.45034-5.0358c-.98365-.3368-1.63473-1.2581-1.66992-2.2893l-.1355-4.70782c-.02287-.65609.26395-1.286.77601-1.70304l5.23148-4.17733c.49446-.403074 1.11562-.622933 1.75617-.622933l13.0496.104695c.7496 0 1.406.427508 1.8881.996348l.732.87769-.6827.50254-.8992-.98588c-.2745-.32106-.6475-.49381-1.0435-.49381l-13.2977-.09423c-.36427 0-.71621.12564-.99775.35422l-5.39512 4.28726c-.22348.18322-.33962.55837-.33082.84629l.02288 4.788c.01935.5462.6933 1.464 1.2124 1.642l12.93881 4.4304c.6247.2111 1.5098.663 1.2951 1.2807z"/><path d="m13.1659 16.5818-3.50528-9.55688c-.25163-.69099-.89215-1.16037-1.63121-1.19876l-3.99795-.00698.29739-.59327 3.72872.00872c.98189.04886 1.83005.67354 2.16443 1.58788l3.5034 9.55689z"/><path d="m71.0449 6.96839h4.3306c0-1.2354 0-2.45858 0-3.68177-1.45 0-2.8877 0-4.3306 0z"/><path d="m75.3755 8.81104h-4.3306v13.76216h4.3306z"/><path d="m58.586 10.2615c-1.464-2.94719-5.8385-1.9997-8.4006 0l-.1672-1.45005h-4.1686v13.76215h4.3305v-9.96c2.3439-2.4516 4.5839-.8358 4.5839.8847v9.077h4.3306v-9.9634c2.3438-2.4516 4.5716-.8289 4.5716.8916v9.0718h4.3305v-10.021c-.0774-5.23824-6.5741-4.97127-9.4107-2.2928z"/><path d="m92.7494 13.3248c.0563-5.63604-7.343-6.13857-9.9878-3.064l-.183-1.45006h-4.1528v13.76216h4.3305v-9.96c2.3386-2.4987 5.6608-.6945 5.6644 1.4064v8.5536h4.3305v-9.9635"/><path d="m105.978 5.65445v4.47925c-1.142-1.12028-2.692-1.74496-4.494-1.74496-3.5808 0-6.5758 2.45336-6.5758 6.38286v1.8497c0 3.9539 2.9756 6.4527 6.5758 6.4527 1.827 0 3.394-.6474 4.542-1.7991l.239 1.2983 3.877.0017v-18.10176zm-1.311 13.61555c-.533.5305-1.254.7992-2.143.7992s-1.61-.2687-2.143-.7992c-.7287-.7241-1.0965-1.9141-1.093-3.5369-.0035-1.6228.3643-2.8128 1.093-3.537.533-.5304 1.254-.7991 2.143-.7991.887 0 1.608.2687 2.143.7991.729.7242 1.097 1.9142 1.093 3.5387.004 1.6211-.364 2.8111-1.093 3.5352z"/><path d="m122.058 19.2707c-.533.5304-1.255.7991-2.144.7991-.888 0-1.61-.2687-2.143-.7991-.501-.4973-.827-1.2215-.983-2.1498h3.126 7.593l.025-2.312c.002-1.5756-.665-3.1408-1.83-4.2977-.973-.9667-2.77-2.12009-5.788-2.12009-3.019 0-4.814 1.15339-5.789 2.12009-1.163 1.1551-1.83 2.7221-1.828 4.2977v1.8496c-.002 1.5757.665 3.1409 1.828 4.2978.975.9666 2.77 2.12 5.789 2.12 3.018 0 4.813-1.1534 5.788-2.12.598-.5951 1.063-1.2983 1.376-2.0538h-4.714c-.093.1309-.194.2565-.306.3682zm-2.142-7.8748c.887 0 1.609.2687 2.143.7991.502.4973.828 1.2215.984 2.1498h-6.252c.157-.9283.482-1.6507.984-2.1498.531-.5304 1.253-.7991 2.141-.7991z"/><path d="m134.025 10.2032-.003.0052v-1.39769h-4.331v13.76219h4.331v-9.1905l.003.0052c1.435-.9824 3.703-2.0258 5.48-2.0258v-2.8896c-2.096-.43448-3.831.41878-5.48 1.731z"/></g></svg>